<?xml version="1.0" encoding="utf-8"?>
<!-- Generator: Adobe Illustrator 19.2.0, SVG Export Plug-In . SVG Version: 6.00 Build 0)  -->
<svg version="1.1" id="Layer_1" xmlns="http://www.w3.org/2000/svg" xmlns:xlink="http://www.w3.org/1999/xlink" x="0px" y="0px"
	 viewBox="0 0 9.6 9.8" style="enable-background:new 0 0 9.6 9.8;" xml:space="preserve">
<style type="text/css">
	.st0{fill:#F64B08;}
</style>
<path class="st0" d="M7.4,3.3L8.3,2L7.6,1.3L6.3,2.1C6.1,2,5.9,1.9,5.7,1.9L5.4,0.3h-1L4.1,1.9C3.9,1.9,3.6,2,3.5,2.1L2.2,1.2
	L1.5,1.9l0.8,1.3C2.2,3.4,2.1,3.6,2.1,3.9L0.5,4.2v1L2,5.5c0.1,0.2,0.1,0.4,0.2,0.6L1.5,7.4l0.7,0.7l1.3-0.8
	c0.2,0.1,0.4,0.2,0.6,0.3L4.4,9h1l0.3-1.5c0.2-0.1,0.4-0.1,0.6-0.3l1.3,0.9l0.7-0.7L7.4,6.1c0.1-0.2,0.2-0.4,0.3-0.6l1.5-0.3v-1
	L7.7,3.9C7.6,3.6,7.5,3.4,7.4,3.3z M4.9,5.8c-0.6,0-1.2-0.5-1.2-1.2c0-0.6,0.5-1.2,1.2-1.2C5.5,3.5,6,4,6,4.7C6,5.3,5.5,5.8,4.9,5.8
	z"/>
</svg>
