<?xml version="1.0" encoding="utf-8"?>
<!-- Generator: Adobe Illustrator 22.0.1, SVG Export Plug-In . SVG Version: 6.00 Build 0)  -->
<svg version="1.1" id="Layer_1" xmlns="http://www.w3.org/2000/svg" xmlns:xlink="http://www.w3.org/1999/xlink" x="0px" y="0px"
	 viewBox="0 0 209.6 86.8" style="enable-background:new 0 0 209.6 86.8;" xml:space="preserve">
<style type="text/css">
	.st0{fill:#2B2B2B;}
</style>
<g>
	<path class="st0" d="M62.5,35.8c-3.2,0-6-0.8-8.2-2.4c-3.9-2.7-6-6.9-6-12c0-4.2,1.4-7.6,4.1-10.4c2.6-2.6,6.1-4,9.9-4
		c1.5,0,3,0.2,4.6,0.7l0.6,4.3c-1.4-0.8-3.2-1.3-5.1-1.3c-5.7,0-10.1,4.4-10.1,10.7c0,3.1,1,5.7,2.9,7.7c1.8,1.9,4.4,3,7,3
		c1.4,0,2.6-0.2,3.8-0.6c0.6-0.2,1.2-0.6,1.8-0.9l-0.5,4.3C65.8,35.4,64.2,35.8,62.5,35.8z"/>
	<path class="st0" d="M70.7,15l3.8-0.4v4.3c1.5-3.1,3.9-4.6,7.2-4.6c0.3,0,0.6,0,0.9,0l-1.7,3.9c-5,0.2-6.4,3.3-6.4,10.2v6.9
		l-3.8,0.4V15z"/>
	<path class="st0" d="M92.9,35.6c-3,0-5.6-1-7.6-3c-2.1-2-3.2-4.6-3.2-7.6c0-2.9,1.1-5.6,3.1-7.6s4.5-3,7.4-3c4,0,7.2,1.9,9.2,5.4
		l-14.7,9.1c1,1.9,3.3,3.1,5.8,3.1c2.2,0,4.8-1.1,7.6-3.4l0.8,3.8C98.5,34.6,95.7,35.6,92.9,35.6z M96.2,19.2
		c-1-0.9-2.2-1.4-3.6-1.4c-3.8,0-6.6,2.8-6.6,7.3c0,0.1,0,0.2,0,0.4L96.2,19.2z"/>
	<path class="st0" d="M110.8,35.7c-4.7,0-7.6-2.8-7.6-7.2c0-4.5,3.2-7.5,7.6-7.5c2.1,0,3.8,0.6,5.4,1.8v-1.6c0-2.4-1.4-3.5-4.7-3.5
		c-1.8,0-3.8,0.6-6,1.5l0.9-3.9c2.2-0.6,4.1-0.9,5.9-0.9c5.4,0,7.6,2.5,7.6,8V35l-3.2,0.4l-0.1-2.2
		C115.1,34.9,113.1,35.7,110.8,35.7z M111.4,32.3c3.2,0,5.1-1.5,5.1-4s-1.9-4.1-4.7-4.1c-2.9,0-4.8,1.6-4.8,4.1
		C107,30.7,108.7,32.3,111.4,32.3z"/>
	<path class="st0" d="M128.4,15h5.4v3.4h-5.4v8.1c0,4,0.2,5.6,4.1,5.6c0.7,0,1.4-0.1,2.2-0.4l-1,3.6c-1.1,0.2-1.9,0.2-2.3,0.2
		c-5.5,0-7-2.8-7-9v-8.2h-3l1-3.4h2v-5l3.8-0.9v6H128.4z"/>
	<path class="st0" d="M136.3,9.3l2.6-3.2l2.6,3.2l-2.5,3.2L136.3,9.3z M136.9,15l3.9-0.4v20.6l-3.9,0.4V15z"/>
	<path class="st0" d="M142.4,15.3l3.5-0.8l5.5,11.6c0.4,0.9,0.7,1.8,0.8,2.6c0.2-1,0.4-1.8,0.7-2.4l5.2-11.8l3.6,0.8L152.1,36
		L142.4,15.3z"/>
	<path class="st0" d="M162.5,9.3l2.6-3.2l2.6,3.2l-2.5,3.2L162.5,9.3z M163.2,15l3.9-0.4v20.6l-3.9,0.4V15z"/>
	<path class="st0" d="M176,15h5.4v3.4H176v8.1c0,4,0.2,5.6,4.1,5.6c0.7,0,1.4-0.1,2.2-0.4l-1,3.6c-1.1,0.2-1.9,0.2-2.3,0.2
		c-5.5,0-7-2.8-7-9v-8.2h-3l1-3.4h2v-5l3.8-0.9v6H176z"/>
	<path class="st0" d="M189.3,31.1l-8.1-15.8l3.4-0.8l6.5,12.6l5.8-12.6l3.4,0.8l-12.6,27.2l-3.6-0.9L189.3,31.1z"/>
	<path class="st0" d="M58.3,61.2c0-9.9,7.6-16.6,17.6-16.6c8.4,0,12.6,4.9,14.5,9.3L82,57.8c-0.8-2.5-3.3-4.7-6.2-4.7
		c-4.7,0-7.8,3.6-7.8,8c0,4.5,3.1,8,7.8,8c2.9,0,5.4-2.2,6.2-4.7l8.4,3.8c-1.9,4.3-6.1,9.4-14.5,9.4C65.8,77.7,58.3,71,58.3,61.2z"
		/>
	<path class="st0" d="M93.7,61.2c0-9.8,7.6-16.6,17.5-16.6s17.5,6.7,17.5,16.6s-7.6,16.6-17.5,16.6C101.3,77.7,93.7,71,93.7,61.2z
		 M118.9,61.2c0-4.5-3-8-7.7-8s-7.7,3.6-7.7,8c0,4.5,3,8,7.7,8S118.9,65.6,118.9,61.2z"/>
	<path class="st0" d="M134.1,77.2v-32h14.3c10.1,0,17.6,5.8,17.6,16s-7.5,16-17.5,16H134.1z M156.2,61.1c0-4.3-2.5-7.5-7.7-7.5h-4.7
		v15.1h4.6C153.3,68.7,156.2,65.2,156.2,61.1z"/>
	<path class="st0" d="M171.4,77.2v-32h24.3v8.4h-14.6v3.2h14.3v8.4h-14.3v3.5h14.6v8.4L171.4,77.2L171.4,77.2z"/>
</g>
<g>
	<path class="st0" d="M51.6,77.4c-2-2-3.8-3.9-6.5-6.7c-6,5.4-12.5,7.8-20.2,7.8c-13.5,0-21.3-9-21.3-19.4c0-9.5,5.6-15.9,13.6-20.2
		v-0.3c-3.5-4.5-5.9-9.6-5.9-14.5C11.3,15.7,17.5,7,29,7c8.6,0,15.3,5.6,15.3,14.7c0,7.3-4.2,13-15.2,18.5v0.3
		C35,47.3,41.6,54.9,46,59.8c3.2-4.8,5.3-11.5,6.7-20.2h8.2C59,50.5,56,59.1,50.9,65.2c3.7,3.9,7.3,7.8,11.4,12.2
		C62.3,77.4,51.6,77.4,51.6,77.4z M26.6,71.8c6,0,10.9-2.7,14.2-6.3C36.7,61.1,29,52.6,21.4,43.7c-3.8,2.4-8.9,6.8-8.9,14.1
		C12.5,65.7,18.3,71.8,26.6,71.8L26.6,71.8z M28.3,13.2c-5.6,0-8.6,4.7-8.6,10.1c0,4.9,2.4,8.7,5.2,12.4c7.1-4,11.5-7.7,11.5-13.6
		C36.4,17.9,34,13.2,28.3,13.2C28.4,13.2,28.3,13.2,28.3,13.2z"/>
</g>
</svg>
