<?xml version="1.0" encoding="utf-8"?>
<!-- Generator: Adobe Illustrator 23.0.1, SVG Export Plug-In . SVG Version: 6.00 Build 0)  -->
<svg version="1.0"
	 id="svg2" xmlns:cc="http://creativecommons.org/ns#" xmlns:dc="http://purl.org/dc/elements/1.1/" xmlns:inkscape="http://www.inkscape.org/namespaces/inkscape" xmlns:rdf="http://www.w3.org/1999/02/22-rdf-syntax-ns#" xmlns:sodipodi="http://sodipodi.sourceforge.net/DTD/sodipodi-0.dtd" xmlns:svg="http://www.w3.org/2000/svg"
	 xmlns="http://www.w3.org/2000/svg" xmlns:xlink="http://www.w3.org/1999/xlink" x="0px" y="0px" viewBox="0 0 115.46 410.69"
	 style="enable-background:new 0 0 115.46 410.69;" xml:space="preserve">
<defs>
	
	
		<inkscape:perspective  id="perspective10" inkscape:persp3d-origin="372.04724 : 350.78739 : 1" inkscape:vp_x="0 : 526.18109 : 1" inkscape:vp_y="0 : 1000 : 0" inkscape:vp_z="744.09448 : 526.18109 : 1" sodipodi:type="inkscape:persp3d">
		</inkscape:perspective>
</defs>
<sodipodi:namedview  bordercolor="#666666" borderopacity="1.0" gridtolerance="10000" guidetolerance="10" id="base" inkscape:current-layer="layer1" inkscape:cx="186.88613" inkscape:cy="142.4799" inkscape:document-units="px" inkscape:pageopacity="0.0" inkscape:pageshadow="2" inkscape:window-height="968" inkscape:window-width="1280" inkscape:window-x="-4" inkscape:window-y="-4" inkscape:zoom="0.98994949" objecttolerance="10" pagecolor="#ffffff" showgrid="false">
	</sodipodi:namedview>
<g id="layer1" transform="translate(-136.45982,-79.84375)" inkscape:groupmode="layer" inkscape:label="Layer 1">
	<path id="rect2383" sodipodi:nodetypes="ccccccccccccccccccccccccccccc" d="M136.46,441.81c0,26.56,23.58,48.72,47.32,48.72h9
		c23.74,0,48.25-22.16,48.25-48.72v-227.5c0-26.56-18.51-48.72-42.25-48.72h-9c-23.74,0-42.25,22.16-42.25,48.72v146.96h9V214.31
		c0-22.44,15.17-39.72,33.25-39.72h9c18.08,0,33.25,17.28,33.25,39.72v227.5c0,22.44-21.17,39.72-39.25,39.72h-9
		c-18.08,0-38.32-17.28-38.32-39.72H136.46z"/>
</g>
</svg>
